<svg viewBox="0 0 36 36" xmlns="http://www.w3.org/2000/svg"><defs><filter id="j"><feGaussianBlur in="SourceGraphic" stdDeviation=".5"/></filter><filter id="k"><feGaussianBlur in="SourceGraphic" stdDeviation=".5"/></filter><filter id="l"><feGaussianBlur in="SourceGraphic" stdDeviation=".5"/></filter><filter id="m"><feGaussianBlur in="SourceGraphic" stdDeviation=".5"/></filter><filter id="n"><feGaussianBlur in="SourceGraphic" stdDeviation=".5"/></filter><filter id="o"><feGaussianBlur in="SourceGraphic" stdDeviation=".5"/></filter><filter id="p"><feGaussianBlur in="SourceGraphic" stdDeviation=".5"/></filter><filter id="q"><feGaussianBlur in="SourceGraphic" stdDeviation=".5"/></filter><filter id="r"><feGaussianBlur in="SourceGraphic" stdDeviation=".5"/></filter><filter id="a"><feGaussianBlur in="SourceGraphic" stdDeviation=".5"/></filter><filter id="b"><feGaussianBlur in="SourceGraphic" stdDeviation=".5"/></filter><filter id="c"><feGaussianBlur in="SourceGraphic" stdDeviation=".5"/></filter><filter id="d"><feGaussianBlur in="SourceGraphic" stdDeviation=".5"/></filter><filter id="e"><feGaussianBlur in="SourceGraphic" stdDeviation=".5"/></filter><filter id="f"><feGaussianBlur in="SourceGraphic" stdDeviation=".5"/></filter><filter id="g"><feGaussianBlur in="SourceGraphic" stdDeviation=".5"/></filter><filter id="h"><feGaussianBlur in="SourceGraphic" stdDeviation=".5"/></filter><filter id="i"><feGaussianBlur in="SourceGraphic" stdDeviation=".5"/></filter></defs><g class="layer"><path d="M33.16 8.51c3.85 6.46 1.61 14.89-4.99 18.82s-15.08 1.89-18.93-4.57S7.63 7.87 14.23 3.94s15.08-1.89 18.93 4.57" fill="#FFCC4D" opacity=".5"/><path d="M27.37 13.51c3.85 6.46 1.61 14.89-4.99 18.82S7.3 34.22 3.45 27.76 1.84 12.87 8.44 8.94s15.08-1.89 18.93 4.57" fill="#FFCC4D" opacity=".3"/><path d="M30.09 11.05c3.85 6.46 1.61 14.89-4.99 18.82S10.02 31.76 6.17 25.3 4.56 10.41 11.16 6.48s15.08-1.89 18.93 4.57" fill="#FFCC4D"/><ellipse cx="18.79" cy="15.63" fill="#664500" rx="3.09" ry="3.78" transform="rotate(-30.786 32.693 15.456)"/><ellipse cx="14.15" cy="6.94" fill="#664500" rx="1.93" ry="2.65" transform="rotate(-30.786 32.693 15.456)"/><ellipse cx="23.43" cy="6.94" fill="#664500" rx="1.93" ry="2.65" transform="rotate(-30.786 32.693 15.456)"/><path fill="none" stroke="null" stroke-dasharray="null" stroke-linecap="null" stroke-linejoin="null" stroke-opacity="null" d="m15.72 5.54 11.49-.52m-6.05-1.93 2.19.96m.53 2.2h.09m-2.934-3.645-.02.088M12.65 9.14l11.49-.53"/><ellipse cx="18.79" cy="15.63" fill="#664500" rx="3.09" ry="3.78" transform="rotate(-30.786 32.693 15.456)"/><ellipse cx="17.12" cy="15.86" fill="#664500" filter="url(#a)" opacity=".5" rx="3.09" ry="3.78" transform="rotate(-30.786 32.693 15.456)"/><ellipse cx="12.48" cy="7.17" fill="#664500" filter="url(#b)" opacity=".5" rx="1.93" ry="2.65" transform="rotate(-30.786 32.693 15.456)"/><ellipse cx="21.76" cy="7.17" fill="#664500" filter="url(#c)" opacity=".5" rx="1.93" ry="2.65" transform="rotate(-30.786 32.693 15.456)"/><path fill="none" filter="url(#d)" opacity=".5" stroke="null" stroke-dasharray="null" stroke-linecap="null" stroke-linejoin="null" stroke-opacity="null" d="m14.4 6.6 11.49-.53"/><path fill="none" filter="url(#e)" opacity=".5" stroke="null" stroke-dasharray="null" stroke-linecap="null" stroke-linejoin="null" stroke-opacity="null" d="m19.84 4.14 2.2.97"/><path fill="none" filter="url(#f)" opacity=".5" stroke="null" stroke-dasharray="null" stroke-linecap="null" stroke-linejoin="null" stroke-opacity="null" d="M22.56 7.3h.09"/><path fill="none" filter="url(#g)" opacity=".5" stroke="null" stroke-dasharray="null" stroke-linecap="null" stroke-linejoin="null" stroke-opacity="null" transform="rotate(102.905 19.71 3.702)" d="M19.67 3.7h.08"/><path fill="none" filter="url(#h)" opacity=".5" stroke="null" stroke-dasharray="null" stroke-linecap="null" stroke-linejoin="null" stroke-opacity="null" d="m11.33 10.19 11.49-.52"/><ellipse cx="17.12" cy="15.86" fill="#664500" filter="url(#i)" opacity=".5" rx="3.09" ry="3.78" transform="rotate(-30.786 32.693 15.456)"/><ellipse cx="20.02" cy="15.45" fill="#664500" filter="url(#j)" opacity=".5" rx="3.09" ry="3.78" transform="rotate(-30.786 32.693 15.456)"/><ellipse cx="15.38" cy="6.75" fill="#664500" filter="url(#k)" opacity=".5" rx="1.93" ry="2.65" transform="rotate(-30.786 32.693 15.456)"/><ellipse cx="24.67" cy="6.75" fill="#664500" filter="url(#l)" opacity=".5" rx="1.93" ry="2.65" transform="rotate(-30.786 32.693 15.456)"/><path fill="none" filter="url(#m)" opacity=".5" stroke="null" stroke-dasharray="null" stroke-linecap="null" stroke-linejoin="null" stroke-opacity="null" d="m16.68 4.75 11.5-.52"/><path fill="none" filter="url(#n)" opacity=".5" stroke="null" stroke-dasharray="null" stroke-linecap="null" stroke-linejoin="null" stroke-opacity="null" d="m22.12 2.3 2.2.96"/><path fill="none" filter="url(#o)" opacity=".5" stroke="null" stroke-dasharray="null" stroke-linecap="null" stroke-linejoin="null" stroke-opacity="null" d="M24.84 5.46h.09"/><path fill="none" filter="url(#p)" opacity=".5" stroke="null" stroke-dasharray="null" stroke-linecap="null" stroke-linejoin="null" stroke-opacity="null" transform="rotate(102.905 21.991 1.86)" d="M21.95 1.86h.09"/><path fill="none" filter="url(#q)" opacity=".5" stroke="null" stroke-dasharray="null" stroke-linecap="null" stroke-linejoin="null" stroke-opacity="null" d="m13.61 8.35 11.5-.53"/><ellipse cx="20.02" cy="15.45" fill="#664500" filter="url(#r)" opacity=".5" rx="3.09" ry="3.78" transform="rotate(-30.786 32.693 15.456)"/><path d="M30.35 11.05c3.85 6.46 1.61 14.89-4.99 18.82S10.28 31.76 6.43 25.3 4.82 10.41 11.42 6.48s15.08-1.89 18.93 4.57" fill="#FFCC4D" opacity=".1"/></g></svg>